<?xml version="1.0" encoding="UTF-8"?>
<svg xmlns="http://www.w3.org/2000/svg" xmlns:xlink="http://www.w3.org/1999/xlink" width="375pt" height="374.999991pt" viewBox="0 0 375 374.999991" version="1.2">
<defs>
<clipPath id="clip1">
  <path d="M 70.117188 64.515625 L 301.117188 64.515625 L 301.117188 295.515625 L 70.117188 295.515625 Z M 70.117188 64.515625 "/>
</clipPath>
<clipPath id="clip2">
  <path d="M 84.242188 79.128906 L 315.242188 79.128906 L 315.242188 310.128906 L 84.242188 310.128906 Z M 84.242188 79.128906 "/>
</clipPath>
<clipPath id="clip3">
  <path d="M 59.402344 88.867188 L 280.652344 88.867188 L 280.652344 310.117188 L 59.402344 310.117188 Z M 59.402344 88.867188 "/>
</clipPath>
</defs>
<g id="surface1">
<g clip-path="url(#clip1)" clip-rule="nonzero">
<path style=" stroke:none;fill-rule:nonzero;fill:rgb(0%,0%,0%);fill-opacity:1;" d="M 185.617188 295.515625 C 121.90625 295.515625 70.117188 243.726562 70.117188 180.015625 C 70.117188 116.304688 121.90625 64.515625 185.617188 64.515625 C 249.328125 64.515625 301.117188 116.304688 301.117188 180.015625 C 301.117188 243.726562 249.328125 295.515625 185.617188 295.515625 Z M 185.617188 71.445312 C 125.742188 71.445312 77.046875 120.140625 77.046875 180.015625 C 77.046875 239.890625 125.789062 288.585938 185.617188 288.585938 C 245.492188 288.585938 294.1875 239.84375 294.1875 180.015625 C 294.1875 120.140625 245.492188 71.445312 185.617188 71.445312 Z M 185.617188 71.445312 "/>
</g>
<path style=" stroke:none;fill-rule:nonzero;fill:rgb(0%,0%,0%);fill-opacity:1;" d="M 185.617188 263.175781 C 139.738281 263.175781 102.457031 225.890625 102.457031 180.015625 C 102.457031 134.136719 139.738281 96.902344 185.617188 96.902344 C 231.492188 96.902344 268.730469 134.183594 268.730469 180.015625 C 268.777344 225.84375 231.492188 263.175781 185.617188 263.175781 Z M 185.617188 103.09375 C 143.203125 103.09375 108.738281 137.605469 108.738281 179.96875 C 108.738281 222.335938 143.203125 256.890625 185.617188 256.890625 C 228.027344 256.890625 262.492188 222.378906 262.492188 180.015625 C 262.492188 137.648438 228.027344 103.09375 185.617188 103.09375 Z M 185.617188 103.09375 "/>
<g clip-path="url(#clip2)" clip-rule="nonzero">
<path style=" stroke:none;fill-rule:nonzero;fill:rgb(27.839661%,57.649231%,84.309387%);fill-opacity:1;" d="M 199.742188 310.128906 C 136.03125 310.128906 84.242188 258.335938 84.242188 194.628906 C 84.242188 130.917969 136.03125 79.128906 199.742188 79.128906 C 263.453125 79.128906 315.242188 130.917969 315.242188 194.628906 C 315.242188 258.335938 263.453125 310.128906 199.742188 310.128906 Z M 199.742188 86.058594 C 139.867188 86.058594 91.171875 134.753906 91.171875 194.628906 C 91.171875 254.503906 139.914062 303.195312 199.742188 303.195312 C 259.617188 303.195312 308.3125 254.457031 308.3125 194.628906 C 308.3125 134.753906 259.617188 86.058594 199.742188 86.058594 Z M 199.742188 86.058594 "/>
</g>
<path style=" stroke:none;fill-rule:nonzero;fill:rgb(27.839661%,57.649231%,84.309387%);fill-opacity:1;" d="M 199.742188 277.789062 C 153.863281 277.789062 116.582031 240.503906 116.582031 194.628906 C 116.582031 148.75 153.863281 111.511719 199.742188 111.511719 C 245.617188 111.511719 282.855469 148.796875 282.855469 194.628906 C 282.902344 240.457031 245.617188 277.789062 199.742188 277.789062 Z M 199.742188 117.703125 C 157.328125 117.703125 122.863281 152.214844 122.863281 194.582031 C 122.863281 236.945312 157.328125 271.503906 199.742188 271.503906 C 242.152344 271.503906 276.617188 236.992188 276.617188 194.628906 C 276.617188 152.261719 242.152344 117.703125 199.742188 117.703125 Z M 199.742188 117.703125 "/>
<g clip-path="url(#clip3)" clip-rule="nonzero">
<path style=" stroke:none;fill-rule:nonzero;fill:rgb(0%,0%,0%);fill-opacity:1;" d="M 170.027344 310.117188 C 109.003906 310.117188 59.402344 260.515625 59.402344 199.492188 C 59.402344 138.472656 109.003906 88.867188 170.027344 88.867188 C 231.046875 88.867188 280.652344 138.472656 280.652344 199.492188 C 280.652344 260.515625 231.046875 310.117188 170.027344 310.117188 Z M 170.027344 95.507812 C 112.679688 95.507812 66.039062 142.144531 66.039062 199.492188 C 66.039062 256.839844 112.722656 303.480469 170.027344 303.480469 C 227.375 303.480469 274.011719 256.796875 274.011719 199.492188 C 274.011719 142.144531 227.375 95.507812 170.027344 95.507812 Z M 170.027344 95.507812 "/>
</g>
<path style=" stroke:none;fill-rule:nonzero;fill:rgb(0%,0%,0%);fill-opacity:1;" d="M 170.027344 279.144531 C 126.085938 279.144531 90.375 243.433594 90.375 199.492188 C 90.375 155.554688 126.085938 119.886719 170.027344 119.886719 C 213.964844 119.886719 249.632812 155.597656 249.632812 199.492188 C 249.675781 243.390625 213.964844 279.144531 170.027344 279.144531 Z M 170.027344 125.816406 C 129.40625 125.816406 96.394531 158.871094 96.394531 199.449219 C 96.394531 240.027344 129.40625 273.125 170.027344 273.125 C 210.648438 273.125 243.65625 240.070312 243.65625 199.492188 C 243.65625 158.917969 210.648438 125.816406 170.027344 125.816406 Z M 170.027344 125.816406 "/>
</g>
</svg>
